<?xml version="1.0" encoding="UTF-8" standalone="no"?>
<!-- Created with Inkscape (http://www.inkscape.org/) -->

<svg
   width="204.70213mm"
   height="98.118141mm"
   viewBox="0 0 204.70213 98.118141"
   version="1.1"
   id="svg1"
   xml:space="preserve"
   inkscape:version="1.4.2 (ebf0e940d0, 2025-05-08)"
   sodipodi:docname="idea.svg"
   xmlns:inkscape="http://www.inkscape.org/namespaces/inkscape"
   xmlns:sodipodi="http://sodipodi.sourceforge.net/DTD/sodipodi-0.dtd"
   xmlns="http://www.w3.org/2000/svg"
   xmlns:svg="http://www.w3.org/2000/svg"><sodipodi:namedview
     id="namedview1"
     pagecolor="#ffffff"
     bordercolor="#000000"
     borderopacity="0.25"
     inkscape:showpageshadow="2"
     inkscape:pageopacity="0.0"
     inkscape:pagecheckerboard="0"
     inkscape:deskcolor="#d1d1d1"
     inkscape:document-units="mm"
     inkscape:zoom="1.1256817"
     inkscape:cx="423.29907"
     inkscape:cy="565.43517"
     inkscape:window-width="3840"
     inkscape:window-height="2042"
     inkscape:window-x="0"
     inkscape:window-y="0"
     inkscape:window-maximized="1"
     inkscape:current-layer="svg1" /><defs
     id="defs1" /><g
     inkscape:label="Layer 1"
     inkscape:groupmode="layer"
     id="layer1"
     transform="translate(-5.2978707,-16.29342)"><path
       d="m 50.057014,39.116816 c -1.388818,-0.54337 -2.535666,-1.80279 -2.855431,-3.13572 -0.478197,-1.99335 0.627384,-4.15658 2.59599,-5.07942 0.594837,-0.27885 0.874841,-0.33083 1.765764,-0.3278 0.878534,0.003 1.180109,0.0598 1.77111,0.33385 0.994456,0.46107 1.85757,1.30797 2.292345,2.24928 0.311541,0.6745 0.358555,0.92397 0.357631,1.8977 -9.23e-4,0.97258 -0.04704,1.21502 -0.34808,1.82992 -0.446647,0.91231 -1.483091,1.86801 -2.396432,2.20973 -0.887771,0.33216 -2.364688,0.34258 -3.182897,0.0225 z m 2.304936,-3.87537 c 1.019286,-1.04523 1.326895,-1.43682 1.296544,-1.65052 -0.07317,-0.51521 -0.475038,-0.29763 -1.668207,0.90323 l -1.175819,1.18339 -0.4431,-0.46713 c -0.243705,-0.25692 -0.512442,-0.46713 -0.597193,-0.46713 -0.176874,0 -0.453055,0.24754 -0.453055,0.40607 0,0.2054 1.283443,1.46245 1.493154,1.46245 0.116237,0 0.812691,-0.61666 1.547676,-1.37036 z"
       style="fill:#26a269"
       id="path1-1-2" /><path
       d="m 204.07258,33.218282 c -1.38882,-0.54337 -2.53566,-1.80279 -2.85543,-3.13572 -0.4782,-1.99335 0.62739,-4.15658 2.59599,-5.07942 0.59484,-0.27885 0.87484,-0.33083 1.76577,-0.3278 0.87853,0.003 1.1801,0.0598 1.77111,0.33385 0.99445,0.46107 1.85757,1.30797 2.29234,2.24928 0.31154,0.6745 0.35856,0.92397 0.35763,1.8977 -9.2e-4,0.97258 -0.047,1.21502 -0.34808,1.82992 -0.44665,0.91231 -1.48309,1.86801 -2.39643,2.20973 -0.88777,0.33216 -2.36469,0.34258 -3.1829,0.0225 z m 2.30494,-3.87537 c 1.01928,-1.04523 1.32689,-1.43682 1.29654,-1.65052 -0.0732,-0.51521 -0.47504,-0.29763 -1.6682,0.90323 l -1.17582,1.18339 -0.4431,-0.46713 c -0.24371,-0.25692 -0.51245,-0.46713 -0.5972,-0.46713 -0.17687,0 -0.45305,0.24754 -0.45305,0.40607 0,0.2054 1.28344,1.46245 1.49315,1.46245 0.11624,0 0.81269,-0.61666 1.54768,-1.37036 z"
       style="fill:#26a269"
       id="path1-1-2-49" /><path
       d="m 59.23187,59.625806 c -1.388818,-0.54337 -2.535666,-1.80279 -2.855431,-3.13572 -0.478197,-1.99335 0.627384,-4.15658 2.59599,-5.07942 0.594837,-0.27885 0.874841,-0.33083 1.765764,-0.3278 0.878534,0.003 1.180109,0.0598 1.77111,0.33385 0.994456,0.46107 1.85757,1.30797 2.292345,2.24928 0.311541,0.6745 0.358555,0.92397 0.357631,1.8977 -9.23e-4,0.97258 -0.04704,1.21502 -0.34808,1.82992 -0.446647,0.91231 -1.483091,1.86801 -2.396432,2.20973 -0.887771,0.33216 -2.364688,0.34258 -3.182897,0.0225 z m 2.304936,-3.87537 c 1.019286,-1.04523 1.326895,-1.43682 1.296544,-1.65052 -0.07317,-0.51521 -0.475038,-0.29763 -1.668207,0.90323 l -1.175819,1.18339 -0.4431,-0.46713 c -0.243705,-0.25692 -0.512442,-0.46713 -0.597193,-0.46713 -0.176874,0 -0.453055,0.24754 -0.453055,0.40607 0,0.2054 1.283443,1.46245 1.493154,1.46245 0.116237,0 0.812691,-0.61666 1.547676,-1.37036 z"
       style="fill:#1a5fb4"
       id="path1-1-2-4" /><path
       d="m 182.35808,54.189202 c -1.38882,-0.54337 -2.53566,-1.80279 -2.85543,-3.13572 -0.4782,-1.99335 0.62738,-4.15658 2.59599,-5.07942 0.59484,-0.27885 0.87484,-0.33083 1.76576,-0.3278 0.87854,0.003 1.18011,0.0598 1.77111,0.33386 0.99446,0.46107 1.85757,1.30797 2.29235,2.24928 0.31154,0.67449 0.35855,0.92396 0.35763,1.89769 -9.2e-4,0.97258 -0.047,1.21502 -0.34808,1.82992 -0.44665,0.91231 -1.48309,1.86801 -2.39643,2.20973 -0.88777,0.33216 -2.36469,0.34258 -3.1829,0.0225 z m 2.30494,-3.87537 c 1.01928,-1.04523 1.32689,-1.43682 1.29654,-1.65052 -0.0732,-0.51521 -0.47504,-0.29763 -1.66821,0.90323 l -1.17581,1.18339 -0.4431,-0.46713 c -0.24371,-0.25692 -0.51245,-0.46713 -0.5972,-0.46713 -0.17687,0 -0.45305,0.24754 -0.45305,0.40607 0,0.2054 1.28344,1.46245 1.49315,1.46245 0.11624,0 0.81269,-0.61666 1.54768,-1.37036 z"
       style="fill:#1a5fb4"
       id="path1-1-2-4-6" /><path
       d="m 48.614409,78.510743 c -1.388818,-0.54337 -2.535666,-1.80279 -2.855431,-3.13572 -0.478197,-1.99335 0.627384,-4.15658 2.59599,-5.07942 0.594837,-0.27885 0.874841,-0.33083 1.765764,-0.3278 0.878534,0.003 1.180109,0.0598 1.77111,0.33385 0.994456,0.46107 1.85757,1.30797 2.292345,2.24928 0.311541,0.6745 0.358555,0.92397 0.357631,1.8977 -9.23e-4,0.97258 -0.04704,1.21502 -0.34808,1.82992 -0.446647,0.91231 -1.483091,1.86801 -2.396432,2.20973 -0.887771,0.33216 -2.364688,0.34258 -3.182897,0.0225 z m 2.304936,-3.87537 c 1.019286,-1.04523 1.326895,-1.43682 1.296544,-1.65052 -0.07317,-0.51521 -0.475038,-0.29763 -1.668207,0.90323 l -1.175819,1.18339 -0.4431,-0.46713 c -0.243705,-0.25692 -0.512442,-0.46713 -0.597193,-0.46713 -0.176874,0 -0.453055,0.24754 -0.453055,0.40607 0,0.2054 1.283443,1.46245 1.493154,1.46245 0.116237,0 0.812691,-0.61666 1.547676,-1.37036 z"
       style="fill:#c64600"
       id="path1-1-2-4-1" /><path
       d="m 182.35808,79.172612 c -1.38882,-0.54337 -2.53567,-1.80279 -2.85543,-3.13572 -0.4782,-1.99335 0.62738,-4.15658 2.59599,-5.07942 0.59483,-0.27885 0.87484,-0.33083 1.76576,-0.3278 0.87853,0.003 1.18011,0.0598 1.77111,0.33385 0.99446,0.46107 1.85757,1.30797 2.29235,2.24928 0.31154,0.6745 0.35855,0.92397 0.35763,1.8977 -9.3e-4,0.97258 -0.047,1.21502 -0.34808,1.82992 -0.44665,0.91231 -1.48309,1.86801 -2.39644,2.20973 -0.88777,0.33216 -2.36468,0.34258 -3.18289,0.0225 z m 2.30493,-3.87537 c 1.01929,-1.04523 1.3269,-1.43682 1.29655,-1.65052 -0.0732,-0.51521 -0.47504,-0.29763 -1.66821,0.90323 l -1.17582,1.18339 -0.4431,-0.46713 c -0.2437,-0.25692 -0.51244,-0.46713 -0.59719,-0.46713 -0.17688,0 -0.45306,0.24754 -0.45306,0.40607 0,0.2054 1.28345,1.46245 1.49316,1.46245 0.11623,0 0.81269,-0.61666 1.54767,-1.37036 z"
       style="fill:#c64600"
       id="path1-1-2-4-1-3" /><path
       d="m 67.796524,45.089526 c -1.38882,-0.54337 -2.53566,-1.80279 -2.85543,-3.13572 -0.4782,-1.99335 0.62739,-4.15658 2.59599,-5.07942 0.59484,-0.27885 0.87484,-0.33083 1.76577,-0.3278 0.87853,0.003 1.18011,0.0598 1.77111,0.33385 0.99445,0.46107 1.85757,1.30797 2.29234,2.24928 0.31154,0.6745 0.35856,0.92397 0.35763,1.8977 -9.2e-4,0.97258 -0.047,1.21502 -0.34808,1.82992 -0.44665,0.91231 -1.48309,1.86801 -2.39643,2.20973 -0.88777,0.33216 -2.36469,0.34258 -3.1829,0.0225 z m 2.30494,-3.87537 c 1.01928,-1.04523 1.32689,-1.43682 1.29654,-1.65052 -0.0732,-0.51521 -0.47503,-0.29763 -1.6682,0.90323 l -1.17582,1.18339 -0.4431,-0.46713 c -0.24371,-0.25692 -0.51245,-0.46713 -0.5972,-0.46713 -0.17687,0 -0.45305,0.24754 -0.45305,0.40607 0,0.2054 1.28344,1.46245 1.49315,1.46245 0.11624,0 0.81269,-0.61666 1.54768,-1.37036 z"
       style="fill:#e5a50a"
       id="path1-1-2-6" /><path
       d="m 182.35808,32.924482 c -1.38882,-0.54337 -2.53566,-1.80279 -2.85543,-3.13572 -0.4782,-1.99335 0.62739,-4.15658 2.59599,-5.07942 0.59484,-0.27885 0.87484,-0.33083 1.76577,-0.3278 0.87853,0.003 1.18011,0.0598 1.77111,0.33385 0.99445,0.46107 1.85757,1.30797 2.29234,2.24928 0.31154,0.6745 0.35856,0.92397 0.35763,1.8977 -9.2e-4,0.97258 -0.047,1.21502 -0.34808,1.82992 -0.44665,0.91231 -1.48309,1.86801 -2.39643,2.20973 -0.88777,0.33216 -2.36469,0.34258 -3.1829,0.0225 z m 2.30494,-3.87537 c 1.01928,-1.04523 1.32689,-1.43682 1.29654,-1.65052 -0.0732,-0.51521 -0.47503,-0.29763 -1.6682,0.90323 l -1.17582,1.18339 -0.4431,-0.46713 c -0.24371,-0.25692 -0.51245,-0.46713 -0.5972,-0.46713 -0.17687,0 -0.45305,0.24754 -0.45305,0.40607 0,0.2054 1.28344,1.46245 1.49315,1.46245 0.11624,0 0.81269,-0.61666 1.54768,-1.37036 z"
       style="fill:#e5a50a"
       id="path1-1-2-6-0" /><path
       d="m 13.747699,47.64584 c -0.08319,-0.13459 2.46868,-2.64847 2.757638,-2.71657 0.0995,-0.0234 0.170875,0.0598 0.170875,0.19917 0,0.2795 -2.382474,2.64387 -2.664109,2.64387 -0.102433,0 -0.221415,-0.0569 -0.264404,-0.12647 z m 3.610145,-3.86534 c -0.04426,-0.0716 0.141841,-0.50604 0.413563,-0.9654 0.271722,-0.45935 0.723538,-1.2934 1.004037,-1.85344 0.545337,-1.08883 0.706348,-1.27098 0.927765,-1.04956 0.157709,0.15771 -0.389267,1.35873 -1.381401,3.03322 -0.544191,0.91846 -0.784055,1.12628 -0.963964,0.83518 z m 2.604143,-5.10441 c -0.103402,-0.10342 -0.07829,-0.33759 0.09638,-0.8988 0.305322,-0.98101 0.604012,-2.70116 0.604012,-3.4785 0,-0.63223 0.237557,-0.91316 0.527234,-0.62348 0.286011,0.28601 -0.445741,4.34782 -0.879849,4.88387 -0.153775,0.18988 -0.244364,0.22033 -0.347774,0.11691 z"
       style="fill:#000000"
       id="path1-2" /><path
       d="m 32.543153,48.21556 c 0.08319,-0.13459 -2.46868,-2.64847 -2.757638,-2.71657 -0.0995,-0.0234 -0.170875,0.0598 -0.170875,0.19917 0,0.2795 2.382474,2.64387 2.664109,2.64387 0.102433,0 0.221415,-0.0569 0.264404,-0.12647 z m -3.610145,-3.86534 c 0.04426,-0.0716 -0.141841,-0.50604 -0.413563,-0.9654 -0.271722,-0.45935 -0.723538,-1.2934 -1.004037,-1.85344 -0.545337,-1.08883 -0.706348,-1.27098 -0.927765,-1.04956 -0.157709,0.15771 0.389267,1.35873 1.381401,3.03322 0.544191,0.91846 0.784055,1.12628 0.963964,0.83518 z m -2.604143,-5.10441 c 0.103402,-0.10342 0.07829,-0.33759 -0.09638,-0.8988 -0.305322,-0.98101 -0.604012,-2.70116 -0.604012,-3.4785 0,-0.63223 -0.237557,-0.91316 -0.527234,-0.62348 -0.286011,0.28601 0.445741,4.34782 0.879849,4.88387 0.153775,0.18988 0.244364,0.22033 0.347774,0.11691 z"
       style="fill:#000000"
       id="path1-2-0" /><path
       d="M 17.90266,32.54827 C 17.524968,32.35816 17.305478,32.13191 17.113,31.7343 l -0.266573,-0.55066 h -0.677093 c -0.623549,0 -0.687548,-0.0271 -0.809308,-0.34256 -0.169219,-0.43843 -0.170638,-1.61329 -0.0025,-2.04886 0.198473,-0.51408 0.947803,-1.27845 1.495333,-1.52535 l 0.491266,-0.22153 0.04328,-1.76131 c 0.03897,-1.58594 0.07558,-1.83034 0.367738,-2.45472 0.651006,-1.39131 1.790647,-2.13783 3.379923,-2.21402 l 0.965399,-0.0463 v -0.85878 c 0,-0.66532 -0.0405,-0.85878 -0.179788,-0.85878 -0.282286,0 -0.567618,-0.50932 -0.567618,-1.01319 0,-0.36016 0.08285,-0.52919 0.383261,-0.78197 0.48515,-0.40823 0.865978,-0.40823 1.351128,0 0.30767,0.25889 0.383261,0.41858 0.383261,0.80969 0,0.47614 -0.254804,0.88355 -0.631027,1.00896 -0.105576,0.0352 -0.1824,0.3452 -0.215894,0.87121 l -0.052,0.81659 1.041154,0.0567 c 1.607483,0.0875 2.576935,0.70432 3.247882,2.06632 0.394831,0.80149 0.410686,0.89259 0.451732,2.5956 l 0.04254,1.76496 0.390352,0.0781 c 0.581502,0.1163 1.248537,0.63201 1.5871,1.22704 0.371876,0.65358 0.409943,1.87217 0.07448,2.38415 -0.180407,0.27534 -0.302702,0.32348 -0.821661,0.32348 -0.580401,0 -0.620678,0.0224 -0.83796,0.46549 -0.341859,0.69717 -0.962322,1.06436 -1.684841,0.99711 -0.752888,-0.0701 -1.199964,-0.36999 -1.454156,-0.97546 l -0.203445,-0.4846 -2.024224,-0.001 c -1.74564,-0.001 -2.024223,0.0253 -2.024223,0.19177 0,0.32814 -0.35301,0.89637 -0.718591,1.15669 -0.557513,0.39698 -1.131988,0.44316 -1.735294,0.13947 z m 1.48652,-0.73158 c 0.349265,-0.31206 0.40681,-0.44567 0.40681,-0.94447 0,-0.49881 -0.05754,-0.63241 -0.40681,-0.94448 -0.540388,-0.48283 -1.050308,-0.48262 -1.53357,6.4e-4 -0.298128,0.29813 -0.36412,0.46919 -0.36412,0.94384 0,0.47465 0.06599,0.64571 0.36412,0.94384 0.483262,0.48326 0.993182,0.48347 1.53357,6.3e-4 z m 7.308953,0.0579 c 0.716985,-0.37076 0.818479,-1.55108 0.17678,-2.05584 -0.457841,-0.36014 -0.956598,-0.32321 -1.437442,0.10642 -0.328816,0.2938 -0.403979,0.45419 -0.403979,0.86203 0,0.527 0.280246,0.96172 0.741744,1.15061 0.365653,0.14966 0.533471,0.13816 0.922897,-0.0632 z m -9.765581,-1.57033 c 0.113958,-0.51884 0.83018,-1.2078 1.358671,-1.30695 0.801827,-0.15042 1.67498,0.34872 1.9997,1.14315 l 0.128788,0.31508 1.99264,0.0509 1.992641,0.0509 0.249135,-0.52122 c 0.342324,-0.71617 0.81257,-1.03244 1.535088,-1.03244 0.737168,0 1.290606,0.37413 1.563925,1.05722 0.185479,0.46356 0.235233,0.49988 0.684762,0.49988 0.397404,0 0.498285,-0.0505 0.559862,-0.28028 0.238857,-0.89129 -0.08004,-1.81757 -0.793397,-2.3045 -0.410006,-0.27986 -0.4184,-0.28028 -5.717453,-0.27981 -5.075685,4.4e-4 -5.324527,0.0112 -5.712827,0.248 -0.730933,0.44565 -1.139597,1.41435 -0.972479,2.30517 0.07677,0.4092 0.111455,0.43599 0.56452,0.43599 0.437153,0 0.49063,-0.036 0.566424,-0.38107 z m 9.776941,-4.76588 c 0,-1.81649 -0.181646,-2.55616 -0.807216,-3.287 -0.24152,-0.28216 -0.70524,-0.64407 -1.03049,-0.80425 -0.54368,-0.26774 -0.747047,-0.29101 -2.522161,-0.28859 -1.772367,0.002 -1.979628,0.0267 -2.5259,0.2956 -0.327306,0.16113 -0.791026,0.52185 -1.030489,0.80161 -0.621778,0.72641 -0.803477,1.46874 -0.803477,3.28263 v 1.53449 h 4.359866 4.359867 z m -2.740488,-0.8323 c -0.299288,-0.29929 -0.316211,-0.5962 -0.05522,-0.96882 0.23942,-0.34182 0.806781,-0.36724 1.094738,-0.049 0.294245,0.32514 0.260241,0.8413 -0.07069,1.07309 -0.372617,0.26099 -0.669536,0.24407 -0.968824,-0.0552 z M 19.803054,24.5538 c -0.24982,-0.35667 -0.244266,-0.50534 0.03161,-0.84603 0.438154,-0.5411 1.26929,-0.2515 1.26929,0.44226 0,0.62912 -0.938935,0.92054 -1.300896,0.40377 z m 2.941609,-6.28226 c 0.415438,-0.37596 0.207324,-0.91495 -0.353284,-0.91495 -0.260784,0 -0.540023,0.31323 -0.540023,0.60575 0,0.16657 0.357688,0.51536 0.528501,0.51536 0.07535,0 0.239514,-0.0928 0.364806,-0.20616 z"
       style="fill:#63452c"
       id="path1-6" /><path
       d="m 157.89202,36.569856 c -0.3777,-0.19011 -0.59719,-0.41636 -0.78966,-0.81397 l -0.26658,-0.55066 h -0.67709 c -0.62355,0 -0.68755,-0.0271 -0.80931,-0.34256 -0.16922,-0.43843 -0.17064,-1.61329 -0.002,-2.04886 0.19847,-0.51408 0.9478,-1.27845 1.49533,-1.52535 l 0.49127,-0.22153 0.0433,-1.76131 c 0.039,-1.58594 0.0756,-1.83034 0.36774,-2.45472 0.651,-1.39131 1.79065,-2.13783 3.37992,-2.21402 l 0.9654,-0.0463 v -0.85878 c 0,-0.66532 -0.0405,-0.85878 -0.17979,-0.85878 -0.28228,0 -0.56762,-0.50932 -0.56762,-1.01319 0,-0.36016 0.0829,-0.52919 0.38327,-0.78197 0.48515,-0.40823 0.86597,-0.40823 1.35112,0 0.30767,0.25889 0.38326,0.41858 0.38326,0.80969 0,0.47614 -0.2548,0.88355 -0.63102,1.00896 -0.10558,0.0352 -0.1824,0.3452 -0.2159,0.87121 l -0.052,0.81659 1.04116,0.0567 c 1.60748,0.0875 2.57693,0.70432 3.24788,2.06632 0.39483,0.80149 0.41069,0.89259 0.45173,2.5956 l 0.0425,1.76496 0.39035,0.0781 c 0.58151,0.1163 1.24854,0.63201 1.5871,1.22704 0.37188,0.65358 0.40995,1.87217 0.0745,2.38415 -0.1804,0.27534 -0.3027,0.32348 -0.82166,0.32348 -0.5804,0 -0.62068,0.0224 -0.83796,0.46549 -0.34186,0.69717 -0.96232,1.06436 -1.68484,0.99711 -0.75289,-0.0701 -1.19996,-0.36999 -1.45415,-0.97546 l -0.20345,-0.4846 -2.02422,-10e-4 c -1.74564,-0.001 -2.02423,0.0253 -2.02423,0.19177 0,0.32814 -0.35301,0.89637 -0.71859,1.15669 -0.55751,0.39698 -1.13199,0.44316 -1.73529,0.13947 z m 1.48652,-0.73158 c 0.34926,-0.31206 0.40681,-0.44567 0.40681,-0.94447 0,-0.49881 -0.0575,-0.63241 -0.40681,-0.94448 -0.54039,-0.48283 -1.05031,-0.48262 -1.53357,6.4e-4 -0.29813,0.29813 -0.36412,0.46919 -0.36412,0.94384 0,0.47465 0.066,0.64571 0.36412,0.94384 0.48326,0.48326 0.99318,0.48347 1.53357,6.3e-4 z m 7.30895,0.0579 c 0.71698,-0.37076 0.81848,-1.55108 0.17678,-2.05584 -0.45784,-0.36014 -0.9566,-0.32321 -1.43744,0.10642 -0.32882,0.2938 -0.40398,0.45419 -0.40398,0.86203 0,0.527 0.28024,0.96172 0.74174,1.15061 0.36565,0.14966 0.53347,0.13816 0.9229,-0.0632 z m -9.76558,-1.57033 c 0.11396,-0.51884 0.83018,-1.2078 1.35867,-1.30695 0.80183,-0.15042 1.67498,0.34872 1.9997,1.14315 l 0.12879,0.31508 1.99264,0.0509 1.99264,0.0509 0.24913,-0.52122 c 0.34233,-0.71617 0.81257,-1.03244 1.53509,-1.03244 0.73717,0 1.29061,0.37413 1.56393,1.05722 0.18547,0.46356 0.23523,0.49988 0.68476,0.49988 0.3974,0 0.49828,-0.0505 0.55986,-0.28028 0.23886,-0.89129 -0.08,-1.81757 -0.7934,-2.3045 -0.41,-0.27986 -0.4184,-0.28028 -5.71745,-0.27981 -5.07569,4.4e-4 -5.32453,0.0112 -5.71283,0.248 -0.73093,0.44565 -1.13959,1.41435 -0.97248,2.30517 0.0768,0.4092 0.11146,0.43599 0.56452,0.43599 0.43716,0 0.49063,-0.036 0.56643,-0.38107 z m 9.77694,-4.76588 c 0,-1.81649 -0.18165,-2.55616 -0.80722,-3.287 -0.24152,-0.28216 -0.70524,-0.64407 -1.03049,-0.80425 -0.54368,-0.26774 -0.74704,-0.29101 -2.52216,-0.28859 -1.77237,0.002 -1.97963,0.0267 -2.5259,0.2956 -0.3273,0.16113 -0.79102,0.52185 -1.03049,0.80161 -0.62178,0.72641 -0.80347,1.46874 -0.80347,3.28263 v 1.53449 h 4.35986 4.35987 z m -2.74049,-0.8323 c -0.29929,-0.29929 -0.31621,-0.5962 -0.0552,-0.96882 0.23942,-0.34182 0.80678,-0.36724 1.09474,-0.049 0.29424,0.32514 0.26024,0.8413 -0.0707,1.07309 -0.37262,0.26099 -0.66954,0.24407 -0.96883,-0.0552 z m -4.16595,-0.15228 c -0.24982,-0.35667 -0.24427,-0.50534 0.0316,-0.84603 0.43815,-0.5411 1.26929,-0.2515 1.26929,0.44226 0,0.62912 -0.93894,0.92054 -1.3009,0.40377 z m 2.94161,-6.28226 c 0.41544,-0.37596 0.20732,-0.91495 -0.35329,-0.91495 -0.26078,0 -0.54002,0.31323 -0.54002,0.60575 0,0.16657 0.35769,0.51536 0.5285,0.51536 0.0754,0 0.23952,-0.0928 0.36481,-0.20616 z"
       style="fill:#63452c"
       id="path1-6-8" /><path
       d="m 35.21554,57.58938 c -0.377692,-0.19011 -0.597182,-0.41636 -0.78966,-0.81397 l -0.266573,-0.55066 h -0.677093 c -0.623549,0 -0.687548,-0.0271 -0.809308,-0.34256 -0.169219,-0.43843 -0.170638,-1.61329 -0.0025,-2.04886 0.198473,-0.51408 0.947803,-1.27845 1.495333,-1.52535 l 0.491266,-0.22153 0.04328,-1.76131 c 0.03897,-1.58594 0.07558,-1.83034 0.367738,-2.45472 0.651006,-1.39131 1.790647,-2.13783 3.379923,-2.21402 l 0.965399,-0.0463 v -0.85878 c 0,-0.66532 -0.0405,-0.85878 -0.179788,-0.85878 -0.282286,0 -0.567618,-0.50932 -0.567618,-1.01319 0,-0.36016 0.08285,-0.52919 0.383261,-0.78197 0.48515,-0.40823 0.865978,-0.40823 1.351128,0 0.30767,0.25889 0.383261,0.41858 0.383261,0.80969 0,0.47614 -0.254804,0.88355 -0.631027,1.00896 -0.105576,0.0352 -0.1824,0.3452 -0.215894,0.87121 l -0.052,0.81659 1.041154,0.0567 c 1.607483,0.0875 2.576935,0.70432 3.247882,2.06632 0.394831,0.80149 0.410686,0.89259 0.451732,2.5956 l 0.04254,1.76496 0.390352,0.0781 c 0.581502,0.1163 1.248537,0.63201 1.5871,1.22704 0.371876,0.65358 0.409943,1.87217 0.07448,2.38415 -0.180407,0.27534 -0.302702,0.32348 -0.821661,0.32348 -0.580401,0 -0.620678,0.0224 -0.83796,0.46549 -0.341859,0.69717 -0.962322,1.06436 -1.684841,0.99711 -0.752888,-0.0701 -1.199964,-0.36999 -1.454156,-0.97546 l -0.203445,-0.4846 -2.024224,-10e-4 c -1.74564,-10e-4 -2.024223,0.0253 -2.024223,0.19177 0,0.32814 -0.35301,0.89637 -0.718591,1.15669 -0.557513,0.39698 -1.131988,0.44316 -1.735294,0.13947 z m 1.48652,-0.73158 c 0.349265,-0.31206 0.40681,-0.44567 0.40681,-0.94447 0,-0.49881 -0.05754,-0.63241 -0.40681,-0.94448 -0.540388,-0.48283 -1.050308,-0.48262 -1.53357,6.4e-4 -0.298128,0.29813 -0.36412,0.46919 -0.36412,0.94384 0,0.47465 0.06599,0.64571 0.36412,0.94384 0.483262,0.48326 0.993182,0.48347 1.53357,6.3e-4 z m 7.308953,0.0579 c 0.716985,-0.37076 0.818479,-1.55108 0.17678,-2.05584 -0.457841,-0.36014 -0.956598,-0.32321 -1.437442,0.10642 -0.328816,0.2938 -0.403979,0.45419 -0.403979,0.86203 0,0.527 0.280246,0.96172 0.741744,1.15061 0.365653,0.14966 0.533471,0.13816 0.922897,-0.0632 z m -9.765581,-1.57033 c 0.113958,-0.51884 0.83018,-1.2078 1.358671,-1.30695 0.801827,-0.15042 1.67498,0.34872 1.9997,1.14315 l 0.128788,0.31508 1.99264,0.0509 1.992641,0.0509 0.249135,-0.52122 c 0.342324,-0.71617 0.81257,-1.03244 1.535088,-1.03244 0.737168,0 1.290606,0.37413 1.563925,1.05722 0.185479,0.46356 0.235233,0.49988 0.684762,0.49988 0.397404,0 0.498285,-0.0505 0.559862,-0.28028 0.238857,-0.89129 -0.08004,-1.81757 -0.793397,-2.3045 -0.410006,-0.27986 -0.4184,-0.28028 -5.717453,-0.27981 -5.075685,4.4e-4 -5.324527,0.0112 -5.712827,0.248 -0.730933,0.44565 -1.139597,1.41435 -0.972479,2.30517 0.07677,0.4092 0.111455,0.43599 0.56452,0.43599 0.437153,0 0.49063,-0.036 0.566424,-0.38107 z m 9.776941,-4.76588 c 0,-1.81649 -0.181646,-2.55616 -0.807216,-3.287 -0.24152,-0.28216 -0.70524,-0.64407 -1.03049,-0.80425 -0.54368,-0.26774 -0.747047,-0.29101 -2.522161,-0.28859 -1.772367,0.002 -1.979628,0.0267 -2.5259,0.2956 -0.327306,0.16113 -0.791026,0.52185 -1.030489,0.80161 -0.621778,0.72641 -0.803477,1.46874 -0.803477,3.28263 v 1.53449 h 4.359866 4.359867 z m -2.740488,-0.8323 c -0.299288,-0.29929 -0.316211,-0.5962 -0.05522,-0.96882 0.23942,-0.34182 0.806781,-0.36724 1.094738,-0.049 0.294245,0.32514 0.260241,0.8413 -0.07069,1.07309 -0.372617,0.26099 -0.669536,0.24407 -0.968824,-0.0552 z m -4.165951,-0.15228 c -0.24982,-0.35667 -0.244266,-0.50534 0.03161,-0.84603 0.438154,-0.5411 1.26929,-0.2515 1.26929,0.44226 0,0.62912 -0.938935,0.92054 -1.300896,0.40377 z m 2.941609,-6.28226 c 0.415438,-0.37596 0.207324,-0.91495 -0.353284,-0.91495 -0.260784,0 -0.540023,0.31323 -0.540023,0.60575 0,0.16657 0.357688,0.51536 0.528501,0.51536 0.07535,0 0.239514,-0.0928 0.364806,-0.20616 z"
       style="fill:#e5a50a"
       id="path1-6-1" /><path
       d="M 22.372722,86.10188 C 21.99503,85.91177 21.77554,85.68552 21.583062,85.28791 l -0.266573,-0.55066 h -0.677093 c -0.623549,0 -0.687548,-0.0271 -0.809308,-0.34256 -0.169219,-0.43843 -0.170638,-1.61329 -0.0025,-2.04886 0.198473,-0.51408 0.947803,-1.27845 1.495333,-1.52535 l 0.491266,-0.22153 0.04328,-1.76131 c 0.03897,-1.58594 0.07558,-1.83034 0.367738,-2.45472 0.651006,-1.39131 1.790647,-2.13783 3.379923,-2.21402 l 0.965399,-0.0463 v -0.85878 c 0,-0.66532 -0.0405,-0.85878 -0.179788,-0.85878 -0.282286,0 -0.567618,-0.50932 -0.567618,-1.01319 0,-0.36016 0.08285,-0.52919 0.383261,-0.78197 0.48515,-0.40823 0.865978,-0.40823 1.351128,0 0.30767,0.25889 0.383261,0.41858 0.383261,0.80969 0,0.47614 -0.254804,0.88355 -0.631027,1.00896 -0.105576,0.0352 -0.1824,0.3452 -0.215894,0.87121 l -0.052,0.81659 1.041154,0.0567 c 1.607483,0.0875 2.576935,0.70432 3.247882,2.06632 0.394831,0.80149 0.410686,0.89259 0.451732,2.5956 l 0.04254,1.76496 0.390352,0.0781 c 0.581502,0.1163 1.248537,0.63201 1.5871,1.22704 0.371876,0.65358 0.409943,1.87217 0.07448,2.38415 -0.180407,0.27534 -0.302702,0.32348 -0.821661,0.32348 -0.580401,0 -0.620678,0.0224 -0.83796,0.46549 -0.341859,0.69717 -0.962322,1.06436 -1.684841,0.99711 -0.752888,-0.0701 -1.199964,-0.36999 -1.454156,-0.97546 l -0.203445,-0.4846 -2.024224,-10e-4 c -1.74564,-0.001 -2.024223,0.0253 -2.024223,0.19177 0,0.32814 -0.35301,0.89637 -0.718591,1.15669 -0.557513,0.39698 -1.131988,0.44316 -1.735294,0.13947 z m 1.48652,-0.73158 c 0.349265,-0.31206 0.40681,-0.44567 0.40681,-0.94447 0,-0.49881 -0.05754,-0.63241 -0.40681,-0.94448 -0.540388,-0.48283 -1.050308,-0.48262 -1.53357,6.4e-4 -0.298128,0.29813 -0.36412,0.46919 -0.36412,0.94384 0,0.47465 0.06599,0.64571 0.36412,0.94384 0.483262,0.48326 0.993182,0.48347 1.53357,6.3e-4 z m 7.308953,0.0579 c 0.716985,-0.37076 0.818479,-1.55108 0.17678,-2.05584 -0.457841,-0.36014 -0.956598,-0.32321 -1.437442,0.10642 -0.328816,0.2938 -0.403979,0.45419 -0.403979,0.86203 0,0.527 0.280246,0.96172 0.741744,1.15061 0.365653,0.14966 0.533471,0.13816 0.922897,-0.0632 z m -9.765581,-1.57033 c 0.113958,-0.51884 0.83018,-1.2078 1.358671,-1.30695 0.801827,-0.15042 1.67498,0.34872 1.9997,1.14315 l 0.128788,0.31508 1.99264,0.0509 1.992641,0.0509 0.249135,-0.52122 c 0.342324,-0.71617 0.81257,-1.03244 1.535088,-1.03244 0.737168,0 1.290606,0.37413 1.563925,1.05722 0.185479,0.46356 0.235233,0.49988 0.684762,0.49988 0.397404,0 0.498285,-0.0505 0.559862,-0.28028 0.238857,-0.89129 -0.08004,-1.81757 -0.793397,-2.3045 -0.410006,-0.27986 -0.4184,-0.28028 -5.717453,-0.27981 -5.075685,4.4e-4 -5.324527,0.0112 -5.712827,0.248 -0.730933,0.44565 -1.139597,1.41435 -0.972479,2.30517 0.07677,0.4092 0.111455,0.43599 0.56452,0.43599 0.437153,0 0.49063,-0.036 0.566424,-0.38107 z m 9.776941,-4.76588 c 0,-1.81649 -0.181646,-2.55616 -0.807216,-3.287 -0.24152,-0.28216 -0.70524,-0.64407 -1.03049,-0.80425 -0.54368,-0.26774 -0.747047,-0.29101 -2.522161,-0.28859 -1.772367,0.002 -1.979628,0.0267 -2.5259,0.2956 -0.327306,0.16113 -0.791026,0.52185 -1.030489,0.80161 -0.621778,0.72641 -0.803477,1.46874 -0.803477,3.28263 v 1.53449 h 4.359866 4.359867 z m -2.740488,-0.8323 c -0.299288,-0.29929 -0.316211,-0.5962 -0.05522,-0.96882 0.23942,-0.34182 0.806781,-0.36724 1.094738,-0.049 0.294245,0.32514 0.260241,0.8413 -0.07069,1.07309 -0.372617,0.26099 -0.669536,0.24407 -0.968824,-0.0552 z m -4.165951,-0.15228 c -0.24982,-0.35667 -0.244266,-0.50534 0.03161,-0.84603 0.438154,-0.5411 1.26929,-0.2515 1.26929,0.44226 0,0.62912 -0.938935,0.92054 -1.300896,0.40377 z m 2.941609,-6.28226 c 0.415438,-0.37596 0.207324,-0.91495 -0.353284,-0.91495 -0.260784,0 -0.540023,0.31323 -0.540023,0.60575 0,0.16657 0.357688,0.51536 0.528501,0.51536 0.07535,0 0.239514,-0.0928 0.364806,-0.20616 z"
       style="fill:#26a269"
       id="path1-6-1-1" /><path
       d="m 157.93692,82.817982 c -0.3777,-0.19011 -0.59719,-0.41636 -0.78966,-0.81397 l -0.26658,-0.55066 h -0.67709 c -0.62355,0 -0.68755,-0.0271 -0.80931,-0.34256 -0.16922,-0.43843 -0.17064,-1.61329 -0.002,-2.04886 0.19848,-0.51408 0.94781,-1.27845 1.49534,-1.52535 l 0.49126,-0.22153 0.0433,-1.76131 c 0.039,-1.58594 0.0756,-1.83034 0.36774,-2.45472 0.65101,-1.39131 1.79065,-2.13783 3.37992,-2.21402 l 0.9654,-0.0463 v -0.85878 c 0,-0.66532 -0.0405,-0.85878 -0.17979,-0.85878 -0.28228,0 -0.56761,-0.50932 -0.56761,-1.01319 0,-0.36016 0.0829,-0.52919 0.38326,-0.78197 0.48515,-0.40823 0.86597,-0.40823 1.35112,0 0.30767,0.25889 0.38327,0.41858 0.38327,0.80969 0,0.47614 -0.25481,0.88355 -0.63103,1.00896 -0.10558,0.0352 -0.1824,0.3452 -0.2159,0.87121 l -0.052,0.81659 1.04116,0.0567 c 1.60748,0.0875 2.57693,0.70432 3.24788,2.06632 0.39484,0.80149 0.41069,0.89259 0.45174,2.5956 l 0.0425,1.76496 0.39035,0.0781 c 0.5815,0.1163 1.24853,0.63201 1.5871,1.22704 0.37187,0.65358 0.40994,1.87217 0.0745,2.38415 -0.18041,0.27534 -0.3027,0.32348 -0.82166,0.32348 -0.5804,0 -0.62068,0.0224 -0.83796,0.46549 -0.34186,0.69717 -0.96233,1.06436 -1.68485,0.99711 -0.75289,-0.0701 -1.19996,-0.36999 -1.45415,-0.97546 l -0.20345,-0.4846 -2.02422,-0.001 c -1.74564,-10e-4 -2.02423,0.0253 -2.02423,0.19177 0,0.32814 -0.35301,0.89637 -0.71859,1.15669 -0.55751,0.39698 -1.13198,0.44316 -1.73529,0.13947 z m 1.48652,-0.73158 c 0.34926,-0.31206 0.40681,-0.44567 0.40681,-0.94447 0,-0.49881 -0.0575,-0.63241 -0.40681,-0.94448 -0.54039,-0.48283 -1.05031,-0.48262 -1.53357,6.4e-4 -0.29813,0.29813 -0.36412,0.46919 -0.36412,0.94384 0,0.47465 0.066,0.64571 0.36412,0.94384 0.48326,0.48326 0.99318,0.48347 1.53357,6.3e-4 z m 7.30895,0.0579 c 0.71699,-0.37076 0.81848,-1.55108 0.17678,-2.05584 -0.45784,-0.36014 -0.9566,-0.32321 -1.43744,0.10642 -0.32882,0.2938 -0.40398,0.45419 -0.40398,0.86203 0,0.527 0.28024,0.96172 0.74174,1.15061 0.36566,0.14966 0.53347,0.13816 0.9229,-0.0632 z m -9.76558,-1.57033 c 0.11396,-0.51884 0.83018,-1.2078 1.35867,-1.30695 0.80183,-0.15042 1.67498,0.34872 1.9997,1.14315 l 0.12879,0.31508 1.99264,0.0509 1.99264,0.0509 0.24913,-0.52122 c 0.34233,-0.71617 0.81257,-1.03244 1.53509,-1.03244 0.73717,0 1.29061,0.37413 1.56393,1.05722 0.18548,0.46356 0.23523,0.49988 0.68476,0.49988 0.39741,0 0.49829,-0.0505 0.55986,-0.28028 0.23886,-0.89129 -0.08,-1.81757 -0.79339,-2.3045 -0.41001,-0.27986 -0.4184,-0.28028 -5.71746,-0.27981 -5.07568,4.4e-4 -5.32453,0.0112 -5.71283,0.248 -0.73093,0.44565 -1.13959,1.41435 -0.97248,2.30517 0.0768,0.4092 0.11146,0.43599 0.56452,0.43599 0.43716,0 0.49063,-0.036 0.56643,-0.38107 z m 9.77694,-4.76588 c 0,-1.81649 -0.18165,-2.55616 -0.80722,-3.287 -0.24152,-0.28216 -0.70524,-0.64407 -1.03049,-0.80425 -0.54368,-0.26774 -0.74704,-0.29101 -2.52216,-0.28859 -1.77236,0.002 -1.97963,0.0267 -2.5259,0.2956 -0.3273,0.16113 -0.79102,0.52185 -1.03049,0.80161 -0.62177,0.72641 -0.80347,1.46874 -0.80347,3.28263 v 1.53449 h 4.35986 4.35987 z m -2.74049,-0.8323 c -0.29929,-0.29929 -0.31621,-0.5962 -0.0552,-0.96882 0.23942,-0.34182 0.80678,-0.36724 1.09474,-0.049 0.29424,0.32514 0.26024,0.8413 -0.0707,1.07309 -0.37262,0.26099 -0.66954,0.24407 -0.96882,-0.0552 z m -4.16595,-0.15228 c -0.24982,-0.35667 -0.24427,-0.50534 0.0316,-0.84603 0.43815,-0.5411 1.26929,-0.2515 1.26929,0.44226 0,0.62912 -0.93893,0.92054 -1.3009,0.40377 z m 2.94161,-6.28226 c 0.41544,-0.37596 0.20732,-0.91495 -0.35328,-0.91495 -0.26079,0 -0.54003,0.31323 -0.54003,0.60575 0,0.16657 0.35769,0.51536 0.5285,0.51536 0.0753,0 0.23952,-0.0928 0.36481,-0.20616 z"
       style="fill:#26a269"
       id="path1-6-1-1-4" /><path
       d="m 33.083156,73.35487 c -0.08319,-0.13459 2.46868,-2.64847 2.757638,-2.71657 0.0995,-0.0234 0.170875,0.0598 0.170875,0.19917 0,0.2795 -2.382474,2.64387 -2.664109,2.64387 -0.102433,0 -0.221415,-0.0569 -0.264404,-0.12647 z m 3.610145,-3.86534 c -0.04426,-0.0716 0.141841,-0.50604 0.413563,-0.9654 0.271722,-0.45935 0.723538,-1.2934 1.004037,-1.85344 0.545337,-1.08883 0.706348,-1.27098 0.927765,-1.04956 0.157709,0.15771 -0.389267,1.35873 -1.381401,3.03322 -0.544191,0.91846 -0.784055,1.12628 -0.963964,0.83518 z m 2.604143,-5.10441 c -0.103402,-0.10342 -0.07829,-0.33759 0.09638,-0.8988 0.305322,-0.98101 0.604012,-2.70116 0.604012,-3.4785 0,-0.63223 0.237557,-0.91316 0.527234,-0.62348 0.286011,0.28601 -0.445741,4.34782 -0.879849,4.88387 -0.153775,0.18988 -0.244364,0.22033 -0.347774,0.11691 z"
       style="fill:#000000"
       id="path1-2-4" /><path
       d="m 19.700335,79.40227 c 0.08319,-0.13459 -2.46868,-2.64847 -2.757638,-2.71657 -0.0995,-0.0234 -0.170875,0.0598 -0.170875,0.19917 0,0.2795 2.382474,2.64387 2.664109,2.64387 0.102433,0 0.221415,-0.0569 0.264404,-0.12647 z M 16.09019,75.53693 c 0.04426,-0.0716 -0.141841,-0.50604 -0.413563,-0.9654 -0.271722,-0.45935 -0.723538,-1.2934 -1.004037,-1.85344 -0.545337,-1.08883 -0.706348,-1.27098 -0.927765,-1.04956 -0.157709,0.15771 0.389267,1.35873 1.381401,3.03322 0.544191,0.91846 0.784055,1.12628 0.963964,0.83518 z m -2.604143,-5.10441 c 0.103402,-0.10342 0.07829,-0.33759 -0.09638,-0.8988 -0.305322,-0.98101 -0.604012,-2.70116 -0.604012,-3.4785 0,-0.63223 -0.237557,-0.91316 -0.527234,-0.62348 -0.286011,0.28601 0.445741,4.34782 0.879849,4.88387 0.153775,0.18988 0.244364,0.22033 0.347774,0.11691 z"
       style="fill:#000000"
       id="path1-2-4-9" /><path
       d="m 7.9682678,65.11967 c -0.377692,-0.19011 -0.597182,-0.41636 -0.78966,-0.81397 l -0.266573,-0.55066 h -0.677093 c -0.623549,0 -0.687548,-0.0271 -0.809308,-0.34256 -0.169219,-0.43843 -0.170638,-1.61329 -0.0025,-2.04886 0.198473,-0.51408 0.947803,-1.27845 1.495333,-1.52535 l 0.491266,-0.22153 0.04328,-1.76131 c 0.03897,-1.58594 0.07558,-1.83034 0.367738,-2.45472 0.651006,-1.39131 1.7906474,-2.13783 3.3799232,-2.21402 l 0.965399,-0.0463 v -0.85878 c 0,-0.66532 -0.0405,-0.85878 -0.179788,-0.85878 -0.282286,0 -0.567618,-0.50932 -0.567618,-1.01319 0,-0.36016 0.08285,-0.52919 0.383261,-0.78197 0.48515,-0.40823 0.865978,-0.40823 1.351128,0 0.30767,0.25889 0.383261,0.41858 0.383261,0.80969 0,0.47614 -0.254804,0.88355 -0.631027,1.00896 -0.105576,0.0352 -0.1824,0.3452 -0.215894,0.87121 l -0.052,0.81659 1.041154,0.0567 c 1.607483,0.0875 2.576935,0.70432 3.247882,2.06632 0.394831,0.80149 0.410686,0.89259 0.451732,2.5956 l 0.04254,1.76496 0.390352,0.0781 c 0.581502,0.1163 1.248537,0.63201 1.5871,1.22704 0.371876,0.65358 0.409943,1.87217 0.07448,2.38415 -0.180407,0.27534 -0.302702,0.32348 -0.821661,0.32348 -0.580401,0 -0.620678,0.0224 -0.83796,0.46549 -0.341859,0.69717 -0.962322,1.06436 -1.684841,0.99711 -0.752888,-0.0701 -1.199964,-0.36999 -1.454156,-0.97546 l -0.203445,-0.4846 -2.024224,-10e-4 c -1.74564,-10e-4 -2.024223,0.0253 -2.024223,0.19177 0,0.32814 -0.35301,0.89637 -0.7185908,1.15669 -0.557513,0.39698 -1.1319884,0.44316 -1.7352944,0.13947 z m 1.4865204,-0.73158 c 0.349265,-0.31206 0.40681,-0.44567 0.40681,-0.94447 0,-0.49881 -0.05754,-0.63241 -0.40681,-0.94448 -0.540388,-0.48283 -1.0503084,-0.48262 -1.5335704,6.4e-4 -0.298128,0.29813 -0.36412,0.46919 -0.36412,0.94384 0,0.47465 0.06599,0.64571 0.36412,0.94384 0.483262,0.48326 0.9931824,0.48347 1.5335704,6.3e-4 z m 7.3089528,0.0579 c 0.716985,-0.37076 0.818479,-1.55108 0.17678,-2.05584 -0.457841,-0.36014 -0.956598,-0.32321 -1.437442,0.10642 -0.328816,0.2938 -0.403979,0.45419 -0.403979,0.86203 0,0.527 0.280246,0.96172 0.741744,1.15061 0.365653,0.14966 0.533471,0.13816 0.922897,-0.0632 z M 6.9981598,62.87566 c 0.113958,-0.51884 0.83018,-1.2078 1.358671,-1.30695 0.8018274,-0.15042 1.6749802,0.34872 1.9997002,1.14315 l 0.128788,0.31508 1.99264,0.0509 1.992641,0.0509 0.249135,-0.52122 c 0.342324,-0.71617 0.81257,-1.03244 1.535088,-1.03244 0.737168,0 1.290606,0.37413 1.563925,1.05722 0.185479,0.46356 0.235233,0.49988 0.684762,0.49988 0.397404,0 0.498285,-0.0505 0.559862,-0.28028 0.238857,-0.89129 -0.08004,-1.81757 -0.793397,-2.3045 -0.410006,-0.27986 -0.4184,-0.28028 -5.717453,-0.27981 -5.0756852,4.4e-4 -5.3245272,0.0112 -5.7128272,0.248 -0.730933,0.44565 -1.139597,1.41435 -0.972479,2.30517 0.07677,0.4092 0.111455,0.43599 0.56452,0.43599 0.437153,0 0.49063,-0.036 0.566424,-0.38107 z m 9.7769412,-4.76588 c 0,-1.81649 -0.181646,-2.55616 -0.807216,-3.287 -0.24152,-0.28216 -0.70524,-0.64407 -1.03049,-0.80425 -0.54368,-0.26774 -0.747047,-0.29101 -2.522161,-0.28859 -1.772367,0.002 -1.979628,0.0267 -2.5258998,0.2956 -0.327306,0.16113 -0.791026,0.52185 -1.030489,0.80161 -0.6217784,0.72641 -0.8034774,1.46874 -0.8034774,3.28263 v 1.53449 h 4.3598662 4.359867 z m -2.740488,-0.8323 c -0.299288,-0.29929 -0.316211,-0.5962 -0.05522,-0.96882 0.23942,-0.34182 0.806781,-0.36724 1.094738,-0.049 0.294245,0.32514 0.260241,0.8413 -0.07069,1.07309 -0.372617,0.26099 -0.669536,0.24407 -0.968824,-0.0552 z M 9.8686622,57.1252 c -0.24982,-0.35667 -0.244266,-0.50534 0.03161,-0.84603 0.4381538,-0.5411 1.2692898,-0.2515 1.2692898,0.44226 0,0.62912 -0.938935,0.92054 -1.3008958,0.40377 z m 2.9416088,-6.28226 c 0.415438,-0.37596 0.207324,-0.91495 -0.353284,-0.91495 -0.260784,0 -0.540023,0.31323 -0.540023,0.60575 0,0.16657 0.357688,0.51536 0.528501,0.51536 0.07535,0 0.239514,-0.0928 0.364806,-0.20616 z"
       style="fill:#1a5fb4"
       id="path1-6-1-4" /><path
       d="m 157.81273,57.834572 c -0.37769,-0.19011 -0.59718,-0.41636 -0.78966,-0.81397 l -0.26657,-0.55066 h -0.67709 c -0.62355,0 -0.68755,-0.0271 -0.80931,-0.34256 -0.16922,-0.43843 -0.17064,-1.61329 -0.002,-2.04886 0.19847,-0.51408 0.9478,-1.27845 1.49533,-1.52535 l 0.49127,-0.22153 0.0433,-1.76131 c 0.039,-1.58594 0.0756,-1.83034 0.36774,-2.45472 0.651,-1.39131 1.79064,-2.13783 3.37992,-2.21402 l 0.9654,-0.0463 v -0.85878 c 0,-0.66532 -0.0405,-0.85878 -0.17979,-0.85878 -0.28229,0 -0.56762,-0.50932 -0.56762,-1.01319 0,-0.36016 0.0829,-0.52919 0.38326,-0.78197 0.48515,-0.40823 0.86598,-0.40823 1.35113,0 0.30767,0.25889 0.38326,0.41858 0.38326,0.80969 0,0.47614 -0.2548,0.88355 -0.63102,1.00896 -0.10558,0.0352 -0.1824,0.3452 -0.2159,0.87121 l -0.052,0.81659 1.04116,0.0567 c 1.60748,0.0875 2.57693,0.70432 3.24788,2.06632 0.39483,0.80149 0.41068,0.89259 0.45173,2.5956 l 0.0425,1.76496 0.39035,0.0781 c 0.5815,0.1163 1.24854,0.63201 1.5871,1.22704 0.37188,0.65358 0.40994,1.87217 0.0745,2.38415 -0.18041,0.27534 -0.3027,0.32348 -0.82166,0.32348 -0.5804,0 -0.62068,0.0224 -0.83796,0.46549 -0.34186,0.69717 -0.96232,1.06436 -1.68484,0.99711 -0.75289,-0.0701 -1.19996,-0.36999 -1.45416,-0.97546 l -0.20344,-0.4846 -2.02423,-10e-4 c -1.74564,-0.001 -2.02422,0.0253 -2.02422,0.19177 0,0.32814 -0.35301,0.89637 -0.71859,1.15669 -0.55751,0.39698 -1.13199,0.44316 -1.73529,0.13947 z m 1.48652,-0.73158 c 0.34927,-0.31206 0.40681,-0.44567 0.40681,-0.94447 0,-0.49881 -0.0575,-0.63241 -0.40681,-0.94448 -0.54038,-0.48283 -1.05031,-0.48262 -1.53357,6.4e-4 -0.29813,0.29813 -0.36412,0.46919 -0.36412,0.94384 0,0.47465 0.066,0.64571 0.36412,0.94384 0.48326,0.48326 0.99319,0.48347 1.53357,6.3e-4 z m 7.30896,0.0579 c 0.71698,-0.37076 0.81848,-1.55108 0.17678,-2.05584 -0.45784,-0.36014 -0.9566,-0.32321 -1.43745,0.10642 -0.32881,0.2938 -0.40397,0.45419 -0.40397,0.86203 0,0.527 0.28024,0.96172 0.74174,1.15061 0.36565,0.14966 0.53347,0.13816 0.9229,-0.0632 z m -9.76559,-1.57033 c 0.11396,-0.51884 0.83018,-1.2078 1.35868,-1.30695 0.80182,-0.15042 1.67498,0.34872 1.9997,1.14315 l 0.12878,0.31508 1.99264,0.0509 1.99265,0.0509 0.24913,-0.52122 c 0.34232,-0.71617 0.81257,-1.03244 1.53509,-1.03244 0.73717,0 1.2906,0.37413 1.56392,1.05722 0.18548,0.46356 0.23524,0.49988 0.68477,0.49988 0.3974,0 0.49828,-0.0505 0.55986,-0.28028 0.23885,-0.89129 -0.08,-1.81757 -0.7934,-2.3045 -0.41001,-0.27986 -0.4184,-0.28028 -5.71745,-0.27981 -5.07569,4.4e-4 -5.32453,0.0112 -5.71283,0.248 -0.73093,0.44565 -1.1396,1.41435 -0.97248,2.30517 0.0768,0.4092 0.11146,0.43599 0.56452,0.43599 0.43715,0 0.49063,-0.036 0.56642,-0.38107 z m 9.77695,-4.76588 c 0,-1.81649 -0.18165,-2.55616 -0.80722,-3.287 -0.24152,-0.28216 -0.70524,-0.64407 -1.03049,-0.80425 -0.54368,-0.26774 -0.74705,-0.29101 -2.52216,-0.28859 -1.77237,0.002 -1.97963,0.0267 -2.5259,0.2956 -0.32731,0.16113 -0.79103,0.52185 -1.03049,0.80161 -0.62178,0.72641 -0.80348,1.46874 -0.80348,3.28263 v 1.53449 h 4.35987 4.35987 z m -2.74049,-0.8323 c -0.29929,-0.29929 -0.31621,-0.5962 -0.0552,-0.96882 0.23942,-0.34182 0.80678,-0.36724 1.09474,-0.049 0.29424,0.32514 0.26024,0.8413 -0.0707,1.07309 -0.37262,0.26099 -0.66954,0.24407 -0.96883,-0.0552 z m -4.16595,-0.15228 c -0.24982,-0.35667 -0.24427,-0.50534 0.0316,-0.84603 0.43815,-0.5411 1.26929,-0.2515 1.26929,0.44226 0,0.62912 -0.93894,0.92054 -1.3009,0.40377 z m 2.94161,-6.28226 c 0.41543,-0.37596 0.20732,-0.91495 -0.35329,-0.91495 -0.26078,0 -0.54002,0.31323 -0.54002,0.60575 0,0.16657 0.35769,0.51536 0.5285,0.51536 0.0753,0 0.23951,-0.0928 0.36481,-0.20616 z"
       style="fill:#1a5fb4"
       id="path1-6-1-4-7" /><path
       d="m 143.38481,61.443829 c -0.45087,-0.450871 -0.22024,-0.821561 1.57101,-2.525123 l 1.80519,-1.716801 -7.24566,-0.0063 c -6.19727,-0.0047 -7.28082,-0.04857 -7.48861,-0.298983 -0.19383,-0.233543 -0.19383,-0.35192 0,-0.585463 0.20802,-0.250651 1.29151,-0.292732 7.53739,-0.292732 4.01196,0 7.29447,-0.03227 7.29447,-0.07175 0,-0.03948 -0.8343,-0.889961 -1.85399,-1.889934 -1.86128,-1.825292 -2.18175,-2.396515 -1.47104,-2.622099 0.57261,-0.181734 0.8757,0.0506 3.37789,2.589842 1.5201,1.542603 2.25927,2.429869 2.18517,2.622977 -0.13724,0.35767 -5.06571,5.030537 -5.30569,5.030537 -0.0946,0 -0.27732,-0.105437 -0.40613,-0.234186 z"
       style="fill:#000000;stroke-width:1.56667"
       id="path1-8-3" /><path
       d="m 82.994196,61.443829 c -0.45087,-0.450871 -0.22024,-0.821561 1.57101,-2.525123 l 1.80519,-1.716801 -7.24566,-0.0063 c -6.19727,-0.0047 -7.28082,-0.04857 -7.48861,-0.298983 -0.19383,-0.233543 -0.19383,-0.35192 0,-0.585463 0.20802,-0.250651 1.29151,-0.292732 7.53739,-0.292732 4.01196,0 7.29447,-0.03227 7.29447,-0.07175 0,-0.03948 -0.8343,-0.889961 -1.85399,-1.889934 -1.86128,-1.825292 -2.18175,-2.396515 -1.47104,-2.622099 0.57261,-0.181734 0.8757,0.0506 3.37789,2.589842 1.5201,1.542603 2.25927,2.429869 2.18517,2.622977 -0.13724,0.35767 -5.06571,5.030537 -5.30569,5.030537 -0.0946,0 -0.27732,-0.105437 -0.40613,-0.234186 z"
       style="fill:#000000;stroke-width:1.56667"
       id="path1-8-3-4" /><path
       d="m 175.00902,31.390722 c -0.20628,-0.20628 -0.10076,-0.37588 0.71877,-1.15529 l 0.82592,-0.78546 -3.31505,-0.003 c -2.83539,-0.002 -3.33114,-0.0222 -3.42621,-0.13679 -0.0887,-0.10685 -0.0887,-0.16101 0,-0.26786 0.0952,-0.11468 0.5909,-0.13393 3.44853,-0.13393 1.83556,0 3.33738,-0.0148 3.33738,-0.0328 0,-0.0181 -0.38171,-0.40717 -0.84825,-0.86467 -0.85157,-0.83511 -0.99819,-1.09645 -0.67303,-1.19966 0.26198,-0.0831 0.40066,0.0232 1.54547,1.1849 0.69548,0.70576 1.03366,1.1117 0.99976,1.20005 -0.0628,0.16364 -2.31768,2.30156 -2.42747,2.30156 -0.0433,0 -0.12688,-0.0482 -0.18582,-0.10714 z"
       style="fill:#000000;stroke-width:0.716784"
       id="path1-8-3-1" /><path
       d="m 175.36158,52.401872 c -0.20628,-0.20628 -0.10076,-0.37588 0.71877,-1.15529 l 0.82592,-0.78546 -3.31505,-0.003 c -2.83539,-0.002 -3.33114,-0.0222 -3.42621,-0.13679 -0.0887,-0.10685 -0.0887,-0.16101 0,-0.26786 0.0952,-0.11468 0.5909,-0.13393 3.44853,-0.13393 1.83556,0 3.33738,-0.0148 3.33738,-0.0328 0,-0.0181 -0.38171,-0.40717 -0.84825,-0.86467 -0.85157,-0.83511 -0.99819,-1.09645 -0.67303,-1.19966 0.26198,-0.0831 0.40066,0.0232 1.54547,1.1849 0.69548,0.70576 1.03366,1.1117 0.99976,1.20005 -0.0628,0.16364 -2.31768,2.30156 -2.42747,2.30156 -0.0433,0 -0.12688,-0.0482 -0.18582,-0.10714 z"
       style="fill:#000000;stroke-width:0.716784"
       id="path1-8-3-1-4" /><path
       d="m 175.36158,76.821142 c -0.20628,-0.20628 -0.10076,-0.37588 0.71877,-1.15529 l 0.82592,-0.78546 -3.31505,-0.003 c -2.83539,-0.002 -3.33114,-0.0222 -3.42621,-0.13679 -0.0887,-0.10685 -0.0887,-0.16101 0,-0.26786 0.0952,-0.11468 0.5909,-0.13393 3.44853,-0.13393 1.83556,0 3.33738,-0.0148 3.33738,-0.0328 0,-0.0181 -0.38171,-0.40717 -0.84825,-0.86467 -0.85157,-0.83511 -0.99819,-1.09645 -0.67303,-1.19966 0.26198,-0.0831 0.40066,0.0232 1.54547,1.1849 0.69548,0.70576 1.03366,1.1117 0.99976,1.20005 -0.0628,0.16364 -2.31768,2.30156 -2.42747,2.30156 -0.0433,0 -0.12688,-0.0482 -0.18582,-0.10714 z"
       style="fill:#000000;stroke-width:0.716784"
       id="path1-8-3-1-4-6" /><path
       d="m 195.57964,31.245292 c -0.20628,-0.20628 -0.10076,-0.37588 0.71877,-1.15529 l 0.82592,-0.78546 -3.31505,-0.003 c -2.83539,-0.002 -3.33114,-0.0222 -3.42621,-0.13679 -0.0887,-0.10685 -0.0887,-0.16101 0,-0.26786 0.0952,-0.11468 0.5909,-0.13393 3.44853,-0.13393 1.83556,0 3.33738,-0.0148 3.33738,-0.0328 0,-0.0181 -0.38171,-0.40717 -0.84825,-0.86467 -0.85157,-0.83511 -0.99819,-1.09645 -0.67303,-1.19966 0.26198,-0.0831 0.40066,0.0232 1.54547,1.1849 0.69548,0.70576 1.03366,1.1117 0.99976,1.20005 -0.0628,0.16364 -2.31768,2.30156 -2.42747,2.30156 -0.0433,0 -0.12688,-0.0482 -0.18582,-0.10714 z"
       style="fill:#000000;stroke-width:0.716784"
       id="path1-8-3-1-8" /><text
       xml:space="preserve"
       style="font-style:normal;font-variant:normal;font-weight:normal;font-stretch:normal;font-size:9.87777px;font-family:'Liberation Mono';-inkscape-font-specification:'Liberation Mono';text-align:start;writing-mode:lr-tb;direction:ltr;text-anchor:start;fill:#000000;stroke:#000000;stroke-width:0.2"
       x="20.918806"
       y="101.18591"
       id="text1"><tspan
         sodipodi:role="line"
         id="tspan1"
         style="fill:#000000;stroke-width:0.2"
         x="20.918806"
         y="101.18591" /></text><text
       xml:space="preserve"
       style="font-style:normal;font-variant:normal;font-weight:normal;font-stretch:normal;font-size:6.35px;font-family:'Fira Sans';-inkscape-font-specification:'Fira Sans';text-align:start;writing-mode:lr-tb;direction:ltr;text-anchor:start;fill:#000000;stroke:#000000;stroke-width:0.2"
       x="92.60685"
       y="106.29787"
       id="text2"><tspan
         sodipodi:role="line"
         id="tspan2"
         style="font-style:normal;font-variant:normal;font-weight:normal;font-stretch:normal;font-size:6.35px;font-family:'Fira Sans';-inkscape-font-specification:'Fira Sans';stroke-width:0.2"
         x="92.60685"
         y="106.29787">Computional</tspan><tspan
         sodipodi:role="line"
         style="font-style:normal;font-variant:normal;font-weight:normal;font-stretch:normal;font-size:6.35px;font-family:'Fira Sans';-inkscape-font-specification:'Fira Sans';stroke-width:0.2"
         x="92.60685"
         y="114.23537"
         id="tspan3">Fields</tspan></text><text
       xml:space="preserve"
       style="font-style:normal;font-variant:normal;font-weight:normal;font-stretch:normal;font-size:6.35px;font-family:'Fira Sans';-inkscape-font-specification:'Fira Sans';text-align:start;writing-mode:lr-tb;direction:ltr;text-anchor:start;fill:#000000;stroke:#000000;stroke-width:0.2"
       x="11.586259"
       y="109.62846"
       id="text2-6"><tspan
         sodipodi:role="line"
         style="font-style:normal;font-variant:normal;font-weight:normal;font-stretch:normal;font-size:6.35px;font-family:'Fira Sans';-inkscape-font-specification:'Fira Sans';stroke-width:0.2"
         x="11.586259"
         y="109.62846"
         id="tspan3-9">Multi-Robot System</tspan></text><text
       xml:space="preserve"
       style="font-style:normal;font-variant:normal;font-weight:normal;font-stretch:normal;font-size:6.35px;font-family:'Fira Sans';-inkscape-font-specification:'Fira Sans';text-align:start;writing-mode:lr-tb;direction:ltr;text-anchor:start;fill:#000000;stroke:#000000;stroke-width:0.2"
       x="149.21149"
       y="110.26662"
       id="text2-7"><tspan
         sodipodi:role="line"
         style="font-style:normal;font-variant:normal;font-weight:normal;font-stretch:normal;font-size:6.35px;font-family:'Fira Sans';-inkscape-font-specification:'Fira Sans';stroke-width:0.2"
         x="149.21149"
         y="110.26662"
         id="tspan3-4">Tasks Allocation</tspan></text><text
       xml:space="preserve"
       style="font-style:normal;font-variant:normal;font-weight:normal;font-stretch:normal;font-size:4.93889px;font-family:'Fira Sans';-inkscape-font-specification:'Fira Sans';text-align:start;writing-mode:lr-tb;direction:ltr;text-anchor:start;fill:#000000;stroke:#000000;stroke-width:0.2"
       x="131.81541"
       y="67.991119"
       id="text5"><tspan
         sodipodi:role="line"
         id="tspan5"
         style="font-style:normal;font-variant:normal;font-weight:100;font-stretch:normal;font-size:4.93889px;font-family:'Fira Sans';-inkscape-font-specification:'Fira Sans Thin';stroke-width:0.2"
         x="131.81541"
         y="67.991119">Changes </tspan><tspan
         sodipodi:role="line"
         style="font-style:normal;font-variant:normal;font-weight:100;font-stretch:normal;font-size:4.93889px;font-family:'Fira Sans';-inkscape-font-specification:'Fira Sans Thin';stroke-width:0.2"
         x="131.81541"
         y="74.164734"
         id="tspan6">Detected</tspan></text><text
       xml:space="preserve"
       style="font-style:normal;font-variant:normal;font-weight:normal;font-stretch:normal;font-size:4.93889px;font-family:'Fira Sans';-inkscape-font-specification:'Fira Sans';text-align:start;writing-mode:lr-tb;direction:ltr;text-anchor:start;fill:#000000;stroke:#000000;stroke-width:0.2"
       x="68.433189"
       y="67.405861"
       id="text5-6"><tspan
         sodipodi:role="line"
         style="font-style:normal;font-variant:normal;font-weight:100;font-stretch:normal;font-size:4.93889px;font-family:'Fira Sans';-inkscape-font-specification:'Fira Sans Thin';stroke-width:0.2"
         x="68.433189"
         y="67.405861"
         id="tspan6-8">Aggregate</tspan><tspan
         sodipodi:role="line"
         style="font-style:normal;font-variant:normal;font-weight:100;font-stretch:normal;font-size:4.93889px;font-family:'Fira Sans';-inkscape-font-specification:'Fira Sans Thin';stroke-width:0.2"
         x="68.433189"
         y="73.579475"
         id="tspan7">Computing</tspan></text></g><g
     id="g10"><path
       d="m 113.70142,98.658746 c -0.15543,-0.0197 -0.84575,-0.10665 -1.53406,-0.19334 -8.23033,-1.03588 -8.35965,-1.05522 -10.2541,-1.53331 -3.608413,-0.91061 -6.222609,-2.72545 -7.524239,-5.22352 -0.72403,-1.38949 -1.04357,-2.77865 -1.04524,-4.54391 -0.002,-1.893 0.26998,-3.13643 1.57062,-7.18593 0.1593,-0.49596 0.16882,-0.70679 0.17309,-3.83519 0.004,-3.14143 0.014,-3.35315 0.18918,-4.14842 0.94638,-4.29546 3.458686,-7.85264 6.596219,-9.33959 1.3043,-0.61815 1.80425,-0.72191 3.47185,-0.7207 1.21772,6.5e-4 1.58874,0.0312 2.28849,0.18672 1.6639,0.36987 2.82611,0.85422 5.18004,2.15876 1.67235,0.92682 1.94293,1.06345 2.98741,1.50852 1.01003,0.4304 2.55891,0.9597 4.2932,1.4671 2.58212,0.75546 4.05753,1.61525 5.20987,3.036 1.31756,1.62448 1.61461,3.47955 1.07913,6.73916 -0.44959,2.73667 -0.43896,3.00803 0.23704,6.05617 0.52347,2.36032 0.59444,2.95308 0.5412,4.5194 -0.0814,2.39237 -0.73354,4.40093 -2.08636,6.42526 -1.30427,1.95175 -3.11048,3.33007 -5.32939,4.06694 -1.44754,0.48073 -1.8659,0.54181 -3.90433,0.57001 -1.02136,0.0142 -1.9842,0.009 -2.13962,-0.0106 z m 3.16053,-0.43457 c 3.59253,-0.35541 6.13191,-1.82666 7.95482,-4.60882 1.29758,-1.98042 1.91575,-4.08795 1.91575,-6.53143 0,-1.42379 -0.0504,-1.78053 -0.55941,-3.95629 -0.61225,-2.61728 -0.65264,-3.65773 -0.23979,-6.17668 0.37607,-2.29462 0.35621,-3.49913 -0.0782,-4.74846 -0.70889,-2.03846 -2.59858,-3.53609 -5.57327,-4.41701 -3.52236,-1.04312 -5.47046,-1.83259 -7.71934,-3.12827 -2.54007,-1.46343 -4.25544,-2.07932 -6.3555,-2.28187 -2.43295,-0.23464 -4.36621,0.44273 -6.431663,2.25351 -1.4222,1.24685 -2.900426,3.63076 -3.628636,5.85183 -0.62903,1.91853 -0.70653,2.80584 -0.61097,6.99509 0.0426,1.86811 0.0295,1.94863 -0.68465,4.19852 -1.02709,3.23587 -1.29102,5.18479 -0.96301,7.11114 0.68649,4.03153 3.43174,6.53271 8.586209,7.82282 1.33849,0.33501 2.42654,0.49978 7.19015,1.08882 5.39059,0.66657 5.61884,0.68328 7.19756,0.5271 z"
       style="fill:#000000;stroke-width:0.648169"
       id="path1-0-64"
       transform="translate(-5.2978706,-16.29342)" /><g
       id="g9"><path
         style="fill:#c5c4c2;fill-opacity:1;stroke:#000000;stroke-width:0.474829"
         d="m 429.97466,370.80229 c -14.79348,-1.60467 -38.07514,-4.96003 -43.02887,-6.20135 -17.62574,-4.4167 -28.52749,-14.05778 -31.44126,-27.80541 -1.64509,-7.76178 -1.1084,-12.40469 3.17462,-27.46372 l 2.82621,-9.9369 v -12.2476 c 0,-13.34875 0.5206,-16.69961 3.84817,-24.76906 2.51924,-6.10921 8.07128,-14.20757 12.33956,-17.99881 1.9796,-1.75835 5.70465,-4.25016 8.27788,-5.53734 4.65571,-2.32887 4.71722,-2.34033 12.56318,-2.34033 9.85135,0 12.53962,0.83765 27.35748,8.52442 8.04598,4.17386 13.66699,6.549 22.79964,9.63392 13.77092,4.65167 17.12422,6.28549 21.26927,10.36296 6.15601,6.05564 7.52921,12.72074 5.54562,26.91668 -1.26951,9.08549 -1.04971,13.02286 1.30867,23.44251 4.13078,18.2503 0.57376,32.96493 -10.70192,44.2716 -3.6259,3.63586 -6.24616,5.63878 -9.31808,7.1227 -7.17975,3.46825 -17.57487,5.02857 -26.82017,4.02573 z"
         id="path8"
         transform="matrix(0.26458333,0,0,0.26458333,-5.2978706,-16.29342)" /><text
         xml:space="preserve"
         style="font-style:normal;font-variant:normal;font-weight:normal;font-stretch:normal;font-size:6.35px;font-family:'Fira Sans';-inkscape-font-specification:'Fira Sans';text-align:start;writing-mode:lr-tb;direction:ltr;text-anchor:start;fill:#000000;fill-opacity:1;stroke:#000000;stroke-width:0.2"
         x="97.592178"
         y="67.736282"
         id="text4-9"><tspan
           sodipodi:role="line"
           id="tspan4-3"
           style="fill:#000000;fill-opacity:1;stroke-width:0.2"
           x="97.592178"
           y="67.736282">Tasks</tspan></text></g></g><g
     id="g11"
     transform="translate(-0.49200703)"><path
       d="m 114.19343,53.01734 c -0.15543,-0.0197 -0.84576,-0.10665 -1.53407,-0.19334 -8.23032,-1.03588 -8.35964,-1.05522 -10.25409,-1.53331 -3.608409,-0.91061 -6.222614,-2.72545 -7.524244,-5.22352 -0.724026,-1.38949 -1.04357,-2.77865 -1.045242,-4.54391 -0.0019,-1.893 0.269981,-3.13643 1.570622,-7.18593 0.1593,-0.49596 0.16882,-0.70679 0.17309,-3.83519 0.004,-3.14143 0.014,-3.35315 0.18918,-4.14842 0.946385,-4.29546 3.4587,-7.85264 6.596224,-9.33959 1.3043,-0.61815 1.80425,-0.72191 3.47185,-0.7207 1.21772,6.5e-4 1.58874,0.0312 2.28849,0.18672 1.6639,0.36987 2.82611,0.85422 5.18004,2.15876 1.67235,0.92682 1.94293,1.06345 2.98741,1.50852 1.01003,0.4304 2.55891,0.9597 4.2932,1.4671 2.58212,0.75546 4.05753,1.61525 5.20987,3.036 1.31756,1.62448 1.61461,3.47955 1.07913,6.73916 -0.44959,2.73667 -0.43896,3.00803 0.23704,6.05617 0.52347,2.36032 0.59444,2.95308 0.5412,4.5194 -0.0814,2.39237 -0.73354,4.40093 -2.08636,6.42526 -1.30427,1.95175 -3.11048,3.33007 -5.32939,4.06694 -1.44754,0.48073 -1.8659,0.54181 -3.90433,0.57001 -1.02136,0.0142 -1.9842,0.009 -2.13962,-0.0106 z m 3.16052,-0.43457 c 3.59254,-0.35541 6.13191,-1.82666 7.95482,-4.60882 1.29758,-1.98042 1.91575,-4.08795 1.91575,-6.53143 0,-1.42379 -0.0504,-1.78053 -0.55941,-3.95629 -0.61224,-2.61728 -0.65264,-3.65773 -0.23979,-6.17668 0.37607,-2.29462 0.35621,-3.49913 -0.0782,-4.74846 -0.70889,-2.03846 -2.59858,-3.53609 -5.57326,-4.41701 -3.52237,-1.04312 -5.47046,-1.83259 -7.71934,-3.12827 -2.54007,-1.46343 -4.25544,-2.07932 -6.3555,-2.28187 -2.43295,-0.23464 -4.36621,0.44273 -6.43165,2.25351 -1.422204,1.24685 -2.900439,3.63076 -3.628649,5.85183 -0.629035,1.91853 -0.706535,2.80584 -0.610975,6.99509 0.0426,1.86811 0.0295,1.94863 -0.68465,4.19852 -1.02709,3.23587 -1.29102,5.18479 -0.96301,7.11114 0.68649,4.03153 3.431745,6.53271 8.586214,7.82282 1.33849,0.33501 2.42654,0.49978 7.19015,1.08882 5.39059,0.66657 5.61884,0.68328 7.19756,0.5271 z"
       style="fill:#000000;stroke-width:0.648169"
       id="path1-0"
       transform="translate(-5.2978706,-16.29342)" /><g
       id="g8"><path
         style="fill:#c5c4c2;fill-opacity:1;stroke:#000000;stroke-width:0.474829"
         d="m 424.63531,197.48722 c -32.44741,-4.08613 -39.0789,-5.42798 -47.74006,-9.66 -9.77597,-4.77674 -15.85045,-11.32388 -18.56974,-20.01465 -2.77822,-8.87913 -2.18168,-16.83329 2.32541,-31.00654 2.24973,-7.07461 2.2561,-7.12735 2.71613,-22.48114 0.5172,-17.261906 1.00521,-19.534464 6.30451,-29.359018 8.06101,-14.944593 19.41302,-22.299723 32.91988,-21.329251 7.31197,0.525368 12.3283,2.309388 25.80447,9.177147 9.05304,4.613635 14.45164,6.896736 22.30799,9.434175 12.26088,3.960012 16.20704,5.830761 20.56562,9.749498 6.54556,5.885024 8.23397,13.195289 6.19104,26.805179 -1.38381,9.21884 -1.27079,12.08144 0.88743,22.47879 3.88652,18.72353 1.88321,30.51421 -7.24856,42.66214 -7.21844,9.60265 -18.64575,14.62303 -32.9587,14.47981 -3.62762,-0.0363 -9.70506,-0.45756 -13.50542,-0.93614 z"
         id="path7"
         transform="matrix(0.26458333,0,0,0.26458333,-5.2978706,-16.29342)" /><text
         xml:space="preserve"
         style="font-style:normal;font-variant:normal;font-weight:normal;font-stretch:normal;font-size:6.35px;font-family:'Fira Sans';-inkscape-font-specification:'Fira Sans';text-align:start;writing-mode:lr-tb;direction:ltr;text-anchor:start;fill:#000000;stroke:#000000;stroke-width:0.2"
         x="96.167427"
         y="20.924648"
         id="text4"><tspan
           sodipodi:role="line"
           id="tspan4"
           style="stroke-width:0.2"
           x="96.167427"
           y="20.924648">Robots</tspan></text></g></g></svg>
